<svg width="12" height="18" viewBox="0 0 12 18" fill="none" xmlns="http://www.w3.org/2000/svg">
<path fill-rule="evenodd" clip-rule="evenodd" d="M0 4C0 2.11438 0 1.17157 0.585786 0.585787C1.17157 0 2.11438 0 4 0H8C9.88562 0 10.8284 0 11.4142 0.585787C12 1.17157 12 2.11438 12 4V14C12 15.8856 12 16.8284 11.4142 17.4142C10.8284 18 9.88562 18 8 18H4C2.11438 18 1.17157 18 0.585786 17.4142C0 16.8284 0 15.8856 0 14V4ZM3.5 2C3.5 1.72386 3.72386 1.5 4 1.5H8C8.27614 1.5 8.5 1.72386 8.5 2C8.5 2.27614 8.27614 2.5 8 2.5H4C3.72386 2.5 3.5 2.27614 3.5 2ZM6 16C6.55228 16 7 15.5523 7 15C7 14.4477 6.55228 14 6 14C5.44772 14 5 14.4477 5 15C5 15.5523 5.44772 16 6 16Z" fill="#33363F"/>
</svg>
