<svg width="20" height="22" viewBox="0 0 20 22" fill="none" xmlns="http://www.w3.org/2000/svg">
<path d="M10.398 16.804L10.8585 17.6917L10.8585 17.6917L10.398 16.804ZM9.60196 16.804L9.14153 17.6917L9.14153 17.6917L9.60196 16.804ZM16 8C16 10.1458 14.9079 11.9159 13.545 13.2906C12.183 14.6644 10.6342 15.555 9.9376 15.9163L10.8585 17.6917C11.6448 17.2838 13.397 16.2805 14.9653 14.6987C16.5326 13.1178 18 10.8706 18 8H16ZM10 2C13.3137 2 16 4.68629 16 8H18C18 3.58172 14.4183 0 10 0V2ZM4 8C4 4.68629 6.68629 2 10 2V0C5.58172 0 2 3.58172 2 8H4ZM10.0624 15.9163C9.3658 15.555 7.81702 14.6644 6.45503 13.2906C5.09211 11.9159 4 10.1458 4 8H2C2 10.8706 3.46741 13.1178 5.03474 14.6987C6.60299 16.2805 8.35519 17.2838 9.14153 17.6917L10.0624 15.9163ZM9.9376 15.9163C9.95139 15.9091 9.97326 15.9023 10 15.9023C10.0267 15.9023 10.0486 15.9091 10.0624 15.9163L9.14153 17.6917C9.68309 17.9726 10.3169 17.9726 10.8585 17.6917L9.9376 15.9163ZM12 8C12 9.10457 11.1046 10 10 10V12C12.2091 12 14 10.2091 14 8H12ZM10 6C11.1046 6 12 6.89543 12 8H14C14 5.79086 12.2091 4 10 4V6ZM8 8C8 6.89543 8.89543 6 10 6V4C7.79086 4 6 5.79086 6 8H8ZM10 10C8.89543 10 8 9.10457 8 8H6C6 10.2091 7.79086 12 10 12V10Z" fill="#273B4A"/>
<path d="M17.7942 16.5C18.5841 16.9561 19 17.4734 19 18C19 18.5266 18.5841 19.0439 17.7942 19.5C17.0043 19.9561 15.8682 20.3348 14.5 20.5981C13.1318 20.8614 11.5798 21 10 21C8.42017 21 6.86817 20.8614 5.5 20.5981C4.13183 20.3348 2.99569 19.9561 2.20577 19.5C1.41586 19.0439 1 18.5266 1 18C1 17.4734 1.41586 16.9561 2.20577 16.5" stroke="#273B4A" stroke-width="2" stroke-linecap="round"/>
</svg>
